<svg xmlns="http://www.w3.org/2000/svg" viewBox="0 0 100 100" width="100" height="100">
  <circle cx="50" cy="50" r="45" fill="#333"/>
  <path d="M50 15C30.7 15 15 30.7 15 50c0 15.4 10 28.4 23.9 33.2 1.8.3 2.4-.8 2.4-1.8v-6.3c-9.7 2.1-11.8-4.7-11.8-4.7-1.6-4-3.9-5.1-3.9-5.1-3.2-2.2.2-2.1.2-2.1 3.5.2 5.4 3.6 5.4 3.6 3.1 5.4 8.2 3.8 10.2 2.9.3-2.3 1.2-3.8 2.2-4.7-7.7-.9-15.8-3.9-15.8-17.2 0-3.8 1.4-6.9 3.6-9.3-.4-.9-1.6-4.5.3-9.3 0 0 3-9.6 9.6-9.6 3 0 5.6 1.4 7.5 2.8 1.5-.4 3.1-.7 4.7-.7 1.6 0 3.2.2 4.7.7 1.8-1.4 4.5-2.8 7.5-2.8 6.6 0 9.6 9.6 9.6 9.6 1.9 4.8.7 8.4.3 9.3 2.3 2.4 3.6 5.5 3.6 9.3 0 13.3-8.1 16.3-15.8 17.2 1.2 1.1 2.3 3.2 2.3 6.4v9.5c0 .9.6 2 2.4 1.8C75 78.4 85 65.4 85 50c0-19.3-15.7-35-35-35z" fill="white"/>
</svg>
